<?xml version="1.0" standalone="no"?>
<!DOCTYPE svg PUBLIC "-//W3C//DTD SVG 20010904//EN"
 "http://www.w3.org/TR/2001/REC-SVG-20010904/DTD/svg10.dtd">
<svg version="1.0" xmlns="http://www.w3.org/2000/svg"
 width="256.000000pt" height="256.000000pt" viewBox="0 0 256.000000 256.000000"
 preserveAspectRatio="xMidYMid meet">
<metadata>
Created by potrace 1.14, written by Peter Selinger 2001-2017
</metadata>
<g transform="translate(0.000000,256.000000) scale(0.100000,-0.100000)"
fill="#000000" stroke="none">
<path d="M1160 2481 c-58 -43 -215 -160 -350 -259 -135 -100 -249 -185 -255
-189 -5 -5 -89 -67 -185 -138 -170 -125 -177 -130 -236 -136 -107 -11 -139
-55 -132 -180 3 -62 7 -73 35 -100 22 -23 43 -33 77 -36 l46 -6 0 -499 c0
-325 4 -506 10 -519 12 -21 40 -25 58 -7 9 9 12 138 12 520 l0 508 828 0 c631
0 831 3 840 12 18 18 14 46 -7 58 -13 7 -315 10 -910 10 -870 0 -891 0 -901
19 -14 27 -13 114 2 129 9 9 287 12 1188 12 901 0 1179 -3 1188 -12 17 -17 16
-123 -1 -137 -9 -7 -91 -12 -232 -13 -195 -3 -219 -5 -229 -20 -8 -13 -8 -23
0 -35 10 -16 31 -18 163 -21 l151 -3 0 -109 c0 -108 1 -111 25 -122 46 -21 55
0 55 123 l0 109 29 0 c85 0 124 44 129 146 7 120 -37 174 -140 174 -48 0 2
-34 -578 396 -91 67 -250 185 -355 263 -104 77 -197 141 -205 141 -8 -1 -62
-36 -120 -79z m150 -32 c27 -22 265 -198 665 -494 l258 -190 -477 -3 c-262 -1
-690 -1 -952 0 l-475 3 256 190 c141 105 354 263 473 352 120 89 219 162 222
162 3 0 16 -8 30 -20z"/>
<path d="M332 1108 c-17 -17 -17 -519 0 -536 17 -17 519 -17 536 0 17 17 17
519 0 536 -17 17 -519 17 -536 0z m228 -148 l0 -80 -80 0 -80 0 0 80 0 80 80
0 80 0 0 -80z m240 0 l0 -80 -80 0 -80 0 0 80 0 80 80 0 80 0 0 -80z m-240
-240 l0 -80 -80 0 -80 0 0 80 0 80 80 0 80 0 0 -80z m240 0 l0 -80 -80 0 -80
0 0 80 0 80 80 0 80 0 0 -80z"/>
<path d="M1035 1110 c-11 -4 -31 -20 -45 -35 l-25 -27 -3 -484 -3 -484 -129 0
-129 0 11 30 c16 46 2 111 -33 153 -30 36 -77 57 -130 57 -14 0 -34 8 -45 18
-39 37 -71 51 -124 57 -61 7 -106 -7 -154 -48 -19 -17 -45 -26 -78 -29 -149
-15 -199 -194 -80 -285 l43 -32 693 -1 c613 0 695 2 706 15 10 12 10 21 2 40
l-12 25 -230 0 -230 0 0 468 c0 351 3 471 12 480 8 8 56 12 149 12 152 0 173
7 151 55 -12 25 -12 25 -154 24 -79 0 -152 -4 -163 -9z m-584 -839 c34 -38 38
-40 92 -38 47 2 58 -1 76 -22 12 -13 21 -33 21 -43 0 -32 -29 -77 -53 -83 -13
-4 -123 -5 -246 -3 -220 3 -223 3 -242 27 -55 68 24 162 102 120 17 -8 25 -4
57 32 45 51 65 60 117 55 31 -4 48 -13 76 -45z"/>
<path d="M1500 1098 c-19 -13 -41 -35 -48 -48 -19 -38 -8 -97 27 -141 l32 -39
-25 -37 c-24 -37 -29 -61 -27 -111 1 -27 110 -146 153 -168 15 -8 39 -14 53
-14 28 0 99 33 110 51 8 12 45 -17 45 -36 0 -6 -24 -34 -53 -62 -50 -49 -56
-51 -95 -46 -63 8 -107 -4 -160 -46 -58 -46 -77 -86 -67 -138 7 -38 62 -103
87 -103 7 0 32 19 56 41 38 38 45 41 67 31 35 -16 31 -38 -15 -88 -22 -24 -40
-50 -40 -57 0 -28 65 -77 110 -83 55 -7 98 18 145 84 27 39 30 52 31 119 l1
75 54 53 54 54 190 -188 c210 -208 228 -219 301 -185 58 28 85 93 63 151 -6
15 -93 111 -194 213 l-184 185 54 54 54 54 74 1 c67 1 80 4 119 32 57 42 78
72 85 120 6 45 -24 98 -69 123 -25 15 -28 14 -72 -27 -48 -44 -64 -50 -84 -30
-20 20 -14 36 30 84 41 44 42 47 27 72 -25 45 -78 75 -123 69 -48 -7 -82 -31
-121 -86 -27 -38 -30 -51 -31 -118 l-1 -75 -54 -54 -53 -54 -23 21 -22 22 25
33 c33 42 41 101 21 140 -20 39 -141 154 -164 155 -48 4 -81 -4 -116 -27 l-37
-25 -38 30 c-53 43 -107 49 -152 19z m99 -79 l25 -20 -32 -31 -31 -32 -21 24
c-25 28 -26 56 -2 69 24 15 34 13 61 -10z m695 12 c3 -5 -1 -15 -10 -22 -52
-43 -54 -126 -4 -174 45 -43 117 -40 166 6 12 11 24 16 27 11 12 -19 -7 -52
-44 -77 -39 -28 -75 -30 -136 -10 -19 6 -36 -5 -101 -69 l-78 -76 -27 28 -27
27 77 77 c77 78 77 78 65 111 -22 61 -12 106 33 153 20 21 51 29 59 15z m-404
-66 c27 -30 50 -60 50 -68 0 -59 -219 -277 -279 -277 -8 0 -41 27 -73 60 -63
65 -64 67 -17 135 69 100 210 218 249 208 10 -3 42 -29 70 -58z m317 -553
c168 -168 273 -280 273 -292 0 -18 -27 -40 -49 -40 -6 0 -139 128 -296 285
l-284 285 27 28 c21 21 30 25 42 17 8 -5 137 -133 287 -283z m-344 -44 c-77
-78 -77 -78 -65 -111 16 -45 15 -84 -4 -115 -22 -37 -62 -65 -81 -58 -14 6
-12 11 11 35 36 37 43 88 20 136 -32 69 -127 84 -184 30 -19 -19 -30 -23 -35
-15 -19 30 58 100 110 100 16 0 44 -5 62 -12 l34 -12 76 77 77 77 28 -27 28
-27 -77 -78z"/>
<path d="M1412 548 c-32 -32 18 -87 53 -58 28 23 12 70 -25 70 -9 0 -21 -5
-28 -12z"/>
</g>
</svg>
